<?xml version="1.0" encoding="UTF-8"?>
<svg version="1.1" xmlns="http://www.w3.org/2000/svg" width="1020" height="740">
<path d="M0 0 C11.9720586 6.65097948 19.15140224 16.53831434 25.25 28.5625 C25.25 29.5525 25.25 30.5425 25.25 31.5625 C25.91 31.5625 26.57 31.5625 27.25 31.5625 C28.0853125 33.295 28.0853125 33.295 28.9375 35.0625 C30.80489299 38.8307518 32.94927114 42.31473094 35.296875 45.80078125 C36.25 47.5625 36.25 47.5625 36.25 50.5625 C36.91 50.5625 37.57 50.5625 38.25 50.5625 C38.52972656 51.15675781 38.80945313 51.75101563 39.09765625 52.36328125 C41.88247736 58.12096605 45.03556467 63.45503125 48.515625 68.81640625 C50.64504311 72.18798492 52.52001936 75.65820281 54.40234375 79.171875 C60.82959347 90.9664897 67.63173984 102.56255329 74.46875 114.12329102 C77.69778276 119.59463668 80.85676405 125.10399001 84 130.625 C88.582365 138.67086796 93.2118733 146.68815745 97.875 154.6875 C98.47924805 155.72527588 99.08349609 156.76305176 99.70605469 157.83227539 C100.26969727 158.79770264 100.83333984 159.76312988 101.4140625 160.7578125 C101.91373535 161.61391113 102.4134082 162.47000977 102.92822266 163.35205078 C103.98531047 165.11985149 105.10745844 166.84868766 106.25 168.5625 C106.25 169.5525 106.25 170.5425 106.25 171.5625 C106.91 171.5625 107.57 171.5625 108.25 171.5625 C108.64832031 172.29855469 109.04664063 173.03460938 109.45703125 173.79296875 C109.98683594 174.76878906 110.51664063 175.74460938 111.0625 176.75 C111.58457031 177.71292969 112.10664062 178.67585937 112.64453125 179.66796875 C113.69170877 181.55594574 114.79185688 183.41576887 115.94921875 185.23828125 C117.25 187.5625 117.25 187.5625 117.25 190.5625 C117.91 190.5625 118.57 190.5625 119.25 190.5625 C120.2576952 192.3289657 121.25591714 194.10083823 122.25 195.875 C123.0853125 197.35419922 123.0853125 197.35419922 123.9375 198.86328125 C125.25 201.5625 125.25 201.5625 125.25 204.5625 C125.91 204.5625 126.57 204.5625 127.25 204.5625 C127.58 206.2125 127.91 207.8625 128.25 209.5625 C128.91 209.5625 129.57 209.5625 130.25 209.5625 C130.52972656 210.15675781 130.80945313 210.75101563 131.09765625 211.36328125 C133.88247736 217.12096605 137.03556467 222.45503125 140.515625 227.81640625 C142.63700696 231.17526103 144.50622399 234.63104893 146.37890625 238.1328125 C148.97823382 242.89734196 151.67753637 247.60300381 154.375 252.3125 C154.89022217 253.21210449 155.40544434 254.11170898 155.9362793 255.03857422 C156.43426025 255.90756348 156.93224121 256.77655273 157.4453125 257.671875 C157.92258789 258.50654297 158.39986328 259.34121094 158.89160156 260.20117188 C159.75502813 261.70208161 160.62595009 263.19872323 161.50683594 264.68945312 C164.25 269.35548593 164.25 269.35548593 164.25 271.5625 C164.91 271.5625 165.57 271.5625 166.25 271.5625 C166.54132813 272.16763428 166.83265625 272.77276855 167.1328125 273.39624023 C170.20662599 279.67496343 173.60101597 285.66530146 177.25 291.625 C180.62848737 297.16863473 183.92329332 302.7312822 187.04882812 308.42163086 C189.30159866 312.43678225 191.75515886 316.33445146 194.20703125 320.23046875 C196.30540629 323.65188704 197.79052138 326.54972009 198.25 330.5625 C198.91 330.5625 199.57 330.5625 200.25 330.5625 C201.2576952 332.3289657 202.25591714 334.10083823 203.25 335.875 C204.0853125 337.35419922 204.0853125 337.35419922 204.9375 338.86328125 C206.25 341.5625 206.25 341.5625 206.25 344.5625 C206.91 344.5625 207.57 344.5625 208.25 344.5625 C208.64832031 345.29855469 209.04664063 346.03460938 209.45703125 346.79296875 C209.98683594 347.76878906 210.51664063 348.74460937 211.0625 349.75 C211.58457031 350.71292969 212.10664062 351.67585938 212.64453125 352.66796875 C213.69170877 354.55594574 214.79185688 356.41576887 215.94921875 358.23828125 C217.25 360.5625 217.25 360.5625 217.25 363.5625 C217.91 363.5625 218.57 363.5625 219.25 363.5625 C219.54132813 364.16835938 219.83265625 364.77421875 220.1328125 365.3984375 C222.81535037 370.88161239 225.71166614 376.14155808 228.91796875 381.3359375 C229.35753906 382.07070313 229.79710937 382.80546875 230.25 383.5625 C230.60199463 384.14217529 230.95398926 384.72185059 231.31665039 385.3190918 C232.52003021 388.21154723 232.50907761 390.55370896 232.515625 393.68359375 C232.51820313 394.86630859 232.52078125 396.04902344 232.5234375 397.26757812 C232.51570313 398.49927734 232.50796875 399.73097656 232.5 401 C232.50773437 402.22783203 232.51546875 403.45566406 232.5234375 404.72070312 C232.51957031 406.49670898 232.51957031 406.49670898 232.515625 408.30859375 C232.51336914 409.38810303 232.51111328 410.4676123 232.50878906 411.57983398 C232.24559076 414.61331856 231.53020517 416.81679681 230.25 419.5625 C229.59 419.5625 228.93 419.5625 228.25 419.5625 C228.16621094 420.28695313 228.08242188 421.01140625 227.99609375 421.7578125 C225.68195352 430.4570412 215.68430695 437.22992376 208.25 441.5625 C204.06521192 443.61929428 200.29307896 443.84766176 195.71296406 443.82256222 C194.95886451 443.82636789 194.20476497 443.83017356 193.42781392 443.83409455 C190.89250591 443.84442827 188.35742106 443.84050089 185.82209778 443.83665466 C183.98937104 443.84110611 182.15664623 443.84641984 180.32392424 443.85252339 C175.280812 443.86672516 170.23776132 443.86836627 165.19463193 443.86792648 C159.75820027 443.86957277 154.32179411 443.8826358 148.88537598 443.89411926 C136.99488432 443.91698315 125.1044105 443.92489139 113.21389985 443.92994571 C105.79059918 443.93320115 98.3673037 443.93972271 90.94400597 443.9469471 C70.39436542 443.96651493 49.8447297 443.98291803 29.29507923 443.98582363 C27.32198556 443.98610499 27.32198556 443.98610499 25.30903141 443.98639202 C23.3100831 443.98666657 21.3111348 443.98694111 19.31218649 443.98721164 C17.3073268 443.98748336 15.30246711 443.98776004 13.29760742 443.98803711 C12.30388296 443.98816914 12.30388296 443.98816914 11.29008325 443.98830384 C-9.5219036 443.99120879 -30.33379755 444.01330005 -51.14575195 444.04956055 C-74.52811025 444.0902984 -97.9104059 444.1139627 -121.29280168 444.11428314 C-133.67303125 444.11486804 -146.05314125 444.12338069 -158.43334007 444.15228081 C-168.97497729 444.17677566 -179.51645133 444.18409033 -190.05810931 444.16903328 C-195.43658504 444.16185667 -200.81473844 444.1627545 -206.19317818 444.18544388 C-211.11890313 444.20602433 -216.04405772 444.20344197 -220.96977643 444.18256903 C-222.74974355 444.17907238 -224.52975173 444.18399157 -226.30966499 444.19827347 C-240.30558831 444.30331932 -249.12991421 441.76317683 -259.4921875 431.953125 C-267.65793213 423.30704245 -272.52632825 413.37934835 -272.4375 401.4375 C-272.4375 400.53040283 -272.4375 399.62330566 -272.4375 398.6887207 C-272.17548129 389.83857081 -269.25998705 383.05229992 -264.75 375.5625 C-264.09 375.5625 -263.43 375.5625 -262.75 375.5625 C-262.52054687 374.75039063 -262.29109375 373.93828125 -262.0546875 373.1015625 C-260.44279607 368.72918636 -258.24542662 364.93694774 -255.875 360.9375 C-255.39393799 360.11572266 -254.91287598 359.29394531 -254.41723633 358.44726562 C-250.29651881 351.42909597 -246.09037671 344.46208724 -241.88793945 337.49267578 C-238.88258777 332.4947577 -235.9799616 327.46452492 -233.23046875 322.3203125 C-227.9873962 312.55353355 -222.45398202 302.99178305 -216.58984375 293.5859375 C-214.3161535 289.8495548 -212.24190314 286.02566569 -210.17578125 282.171875 C-208.32451413 278.78380258 -206.33600907 275.48920545 -204.3359375 272.1875 C-202.51746137 269.17760847 -200.72206773 266.15512317 -198.9375 263.125 C-198.35355469 262.13628906 -197.76960938 261.14757812 -197.16796875 260.12890625 C-195.64965154 257.56478585 -195.64965154 257.56478585 -194.75 254.5625 C-194.09 254.5625 -193.43 254.5625 -192.75 254.5625 C-192.6571875 253.85351562 -192.564375 253.14453125 -192.46875 252.4140625 C-191.61988924 249.0462997 -190.18361673 246.81415111 -188.25 243.9375 C-186.34475236 241.08743694 -184.83564836 238.81944507 -183.75 235.5625 C-183.09 235.5625 -182.43 235.5625 -181.75 235.5625 C-181.6571875 235.02753906 -181.564375 234.49257813 -181.46875 233.94140625 C-180.52086275 230.80410551 -178.94428233 228.30181524 -177.25 225.5 C-174.64857559 221.19385264 -174.64857559 221.19385264 -172.75 216.5625 C-172.09 216.5625 -171.43 216.5625 -170.75 216.5625 C-170.6571875 215.85738281 -170.564375 215.15226563 -170.46875 214.42578125 C-169.61095419 211.0085838 -168.16358658 208.70770624 -166.25 205.75 C-163.13616684 200.84977276 -160.19335677 195.88840852 -157.375 190.8125 C-154.29968157 185.28977653 -151.15817782 179.81425322 -147.9375 174.375 C-144.04891708 167.80201071 -140.22549573 161.1939781 -136.4375 154.5625 C-135.94596436 153.70245361 -135.45442871 152.84240723 -134.94799805 151.95629883 C-132.68229225 147.98293715 -130.43722284 144.00075493 -128.234375 139.9921875 C-125.72983587 135.47061319 -123.03748008 131.07864901 -120.3125 126.6875 C-116.70880902 120.841887 -113.24794904 114.96624458 -110.02734375 108.8984375 C-108.39580461 105.91476654 -106.59247398 103.06297805 -104.73046875 100.21875 C-103.58295659 98.41328729 -103.58295659 98.41328729 -102.75 95.5625 C-102.09 95.5625 -101.43 95.5625 -100.75 95.5625 C-100.6571875 95.02753906 -100.564375 94.49257812 -100.46875 93.94140625 C-99.52086275 90.80410551 -97.94428233 88.30181524 -96.25 85.5 C-93.64857559 81.19385264 -93.64857559 81.19385264 -91.75 76.5625 C-91.09 76.5625 -90.43 76.5625 -89.75 76.5625 C-89.63785156 75.83675781 -89.52570313 75.11101562 -89.41015625 74.36328125 C-88.72038613 71.43686007 -87.69489186 69.33962191 -86.1875 66.75 C-85.73246094 65.95980469 -85.27742187 65.16960937 -84.80859375 64.35546875 C-84.45925781 63.76378906 -84.10992187 63.17210938 -83.75 62.5625 C-83.09 62.5625 -82.43 62.5625 -81.75 62.5625 C-81.46511719 61.83289063 -81.18023437 61.10328125 -80.88671875 60.3515625 C-77.83886309 52.87331871 -73.89989414 46.10689878 -69.5078125 39.34765625 C-66.68704822 34.87831195 -64.23417723 30.2244074 -61.75 25.5625 C-60.62698109 23.49892064 -59.50203366 21.43638943 -58.375 19.375 C-57.87226563 18.45332031 -57.36953125 17.53164063 -56.8515625 16.58203125 C-56.48804688 15.91558594 -56.12453125 15.24914062 -55.75 14.5625 C-55.09 14.5625 -54.43 14.5625 -53.75 14.5625 C-53.49347656 13.97339844 -53.23695313 13.38429688 -52.97265625 12.77734375 C-49.23952939 6.01477848 -41.51295714 1.8043484 -34.75 -1.4375 C-34.0384375 -1.79972656 -33.326875 -2.16195313 -32.59375 -2.53515625 C-22.32176146 -5.79453723 -9.55119694 -4.87964201 0 0 Z M-55.75 121.5625 C-56.74 122.2225 -57.73 122.8825 -58.75 123.5625 C-57.8321875 123.975 -56.914375 124.3875 -55.96875 124.8125 C-48.28628999 128.38585889 -42.28525511 131.9442602 -36.75 138.5625 C-36.75 134.63150225 -37.90538409 133.94475765 -40.625 131.1875 C-45.18658176 126.74195212 -49.89846183 123.99351481 -55.75 121.5625 Z M16.25 121.5625 C9.30575361 124.97716489 3.84243754 129.23448031 -1.75 134.5625 C-1.42 135.2225 -1.09 135.8825 -0.75 136.5625 C-0.09257813 135.90894531 -0.09257813 135.90894531 0.578125 135.2421875 C6.20035848 129.96277314 12.25947255 126.74318999 19.25 123.5625 C18.26 122.9025 17.27 122.2425 16.25 121.5625 Z M-3.75 137.5625 C-3.75 140.5625 -3.75 140.5625 -3.75 140.5625 Z M-34.75 139.5625 C-33.75 141.5625 -33.75 141.5625 -33.75 141.5625 Z M-5.75 140.5625 C-4.75 142.5625 -4.75 142.5625 -4.75 142.5625 Z M-33.75 141.5625 C-32.75 143.5625 -32.75 143.5625 -32.75 143.5625 Z M-7.75 143.5625 C-6.75 145.5625 -6.75 145.5625 -6.75 145.5625 Z M-8.75 145.5625 C-7.75 147.5625 -7.75 147.5625 -7.75 147.5625 Z M-30.75 147.5625 C-29.75 149.5625 -29.75 149.5625 -29.75 149.5625 Z M-31.49609375 150.890625 C-31.90988281 151.44234375 -32.32367188 151.9940625 -32.75 152.5625 C-35.00102282 154.59356841 -36.08841509 155.53022757 -39.15234375 155.6796875 C-40.40724609 155.55980469 -40.40724609 155.55980469 -41.6875 155.4375 C-45.71627566 155.30083062 -46.43136149 155.32189541 -49.8125 157.875 C-52.77612151 161.98582983 -53.14093888 165.45103425 -53.109375 170.375 C-52.92050569 172.85363292 -52.92050569 172.85363292 -50.375 174.9375 C-46.92106095 178.39143905 -46.95429128 181.08437383 -46.25390625 185.78515625 C-44.97427866 192.83798741 -41.53642976 197.54664693 -36.01953125 202.01953125 C-29.58340408 206.39521151 -22.54374976 208.89347487 -14.75 207.5625 C-6.62255097 205.21054985 -0.68594411 200.11653761 4.625 193.6875 C7.40455899 188.34219425 8.6396016 182.6013248 8.25 176.5625 C8.86875 176.315 9.4875 176.0675 10.125 175.8125 C12.77534901 174.25347117 13.39374887 173.52045846 14.25 170.5625 C14.0593769 164.65318377 13.04666568 161.27956948 9.25 156.5625 C6.8693913 155.37219565 5.749155 155.61134526 3.125 155.8125 C-1.58490293 155.89592823 -4.18773636 154.50454305 -7.92578125 151.75390625 C-12.16078863 148.98800207 -16.90236328 149.34785652 -21.8125 149.3125 C-22.89241211 149.2815625 -22.89241211 149.2815625 -23.99414062 149.25 C-28.01280367 149.14765753 -28.01280367 149.14765753 -31.49609375 150.890625 Z M-117.75 227.5625 C-118.72710937 228.33464844 -119.70421875 229.10679687 -120.7109375 229.90234375 C-127.73312958 235.50064046 -133.38244949 241.37736624 -138.75 248.5625 C-139.15460449 249.08827637 -139.55920898 249.61405273 -139.97607422 250.15576172 C-154.77527822 269.41577922 -166.31574237 294.10919034 -163.25390625 318.98046875 C-163.08761719 320.16253906 -162.92132813 321.34460938 -162.75 322.5625 C-132.8327931 323.61530494 -107.17094008 315.13310572 -84.9375 294.5625 C-83.34932201 293.04771816 -81.77506953 291.52051705 -80.20947266 289.98242188 C-78.86637814 288.67572437 -77.48738733 287.40619297 -76.10546875 286.140625 C-68.67819328 279.1695129 -63.13364498 271.14985842 -57.75 262.5625 C-57.36537598 261.95277344 -56.98075195 261.34304688 -56.58447266 260.71484375 C-48.22597258 247.16253182 -43.88384078 231.27198301 -41.75 215.5625 C-35.31996042 217.66210476 -31.67153329 221.06792228 -27.75 226.5625 C-25.38948023 233.64405931 -27.11272231 238.8350772 -30.07421875 245.4921875 C-34.23384329 253.11331777 -39.87770764 258.77668417 -47.70703125 262.52734375 C-51.42953535 264.4135074 -53.33918665 265.54217926 -54.9453125 269.53125 C-55.40550781 271.27921875 -55.40550781 271.27921875 -55.875 273.0625 C-56.34292969 274.77953125 -56.34292969 274.77953125 -56.8203125 276.53125 C-58.91831262 285.30010306 -60.11576827 293.72295742 -60.0625 302.75 C-60.05758545 303.74813721 -60.0526709 304.74627441 -60.04760742 305.7746582 C-59.84196845 318.89653359 -57.58374503 330.68948504 -51.75 342.5625 C-51.22277344 343.64402344 -50.69554687 344.72554687 -50.15234375 345.83984375 C-44.65780359 356.5660873 -38.02665485 364.92709947 -28.75 372.5625 C-27.24617801 373.87061913 -25.74607738 375.18303048 -24.25 376.5 C-23.24453125 377.37978516 -23.24453125 377.37978516 -22.21875 378.27734375 C-21.7340625 378.70144531 -21.249375 379.12554687 -20.75 379.5625 C-4.09544868 373.65663074 7.38827566 355.54442543 14.640625 340.33203125 C23.3253347 320.95414562 23.85028943 296.83603684 18.25 276.5625 C18.00636719 275.52480469 17.76273438 274.48710937 17.51171875 273.41796875 C15.97408999 267.9743257 14.44687862 265.1988105 9.5 262.3125 C8.18708984 261.63574219 8.18708984 261.63574219 6.84765625 260.9453125 C-2.21652493 256.12016944 -7.99918714 248.10103755 -11.23828125 238.49609375 C-12.57711457 233.43714342 -12.22122571 229.90970816 -9.625 225.4375 C-6.29995452 220.58651296 -2.68962024 216.7759708 3.25 215.5625 C3.35957031 216.15973877 3.46914063 216.75697754 3.58203125 217.37231445 C7.99684285 240.83497427 15.71153039 261.10849665 31.25 279.5625 C31.92675781 280.37332031 32.60351562 281.18414062 33.30078125 282.01953125 C38.73252313 288.3002843 44.68913938 293.4922983 51.25 298.5625 C52.24966797 299.36107422 52.24966797 299.36107422 53.26953125 300.17578125 C74.67194305 316.89219131 97.45124421 323.5601786 124.25 322.5625 C128.61030582 313.84188835 124.1851086 296.99418079 121.46484375 288.09765625 C121.06394531 286.93105469 120.66304687 285.76445312 120.25 284.5625 C119.83878906 283.34433594 119.42757813 282.12617188 119.00390625 280.87109375 C110.25051322 257.0906294 91.96666352 233.77653763 70.25 220.5625 C69.48945312 220.06878906 68.72890625 219.57507813 67.9453125 219.06640625 C47.50976332 206.16855964 22.65243991 198.03784903 -1.58984375 203.4140625 C-7.74106098 205.69458944 -11.86000265 209.05482776 -16.03125 214.0859375 C-17.75 215.5625 -17.75 215.5625 -19.78125 215.4921875 C-22.07504093 214.40900845 -23.1292673 213.25400271 -24.75 211.3125 C-31.59454459 204.38221999 -39.14626809 202.34488825 -48.68701172 202.07250977 C-74.31133562 201.98330979 -98.3221473 210.81754124 -117.75 227.5625 Z " fill="#FFFFFF" transform="translate(543.75,25.4375)"/>
<path d="M0 0 C26.60625 -0.12375 26.60625 -0.12375 53.75 -0.25 C59.31069336 -0.28641602 64.87138672 -0.32283203 70.60058594 -0.36035156 C77.49267578 -0.37841797 77.49267578 -0.37841797 80.73883057 -0.3817749 C82.96298442 -0.38783983 85.18712675 -0.40174314 87.41119385 -0.42230225 C116.68624897 -0.67893338 143.46099491 4.4335203 167 23 C167.98484375 23.77601563 168.9696875 24.55203125 169.984375 25.3515625 C185.82958699 38.69796985 194.80099937 59.77741478 197 80 C198.30653654 108.59295138 194.03944735 132.54189875 175.8125 155.1875 C153.55631844 179.02611649 123.42899107 185.25394494 92 187 C61.64 187 31.28 187 0 187 C0 125.29 0 63.58 0 0 Z M63 49 C63 78.04 63 107.08 63 137 C95.32005199 138.52234563 95.32005199 138.52234563 121.8046875 124.29296875 C131.45653217 114.21177156 133.42308619 102.7083503 133.21875 89.0859375 C133.02166487 83.7621755 131.87709193 78.97837426 130 74 C129.61714844 72.94425781 129.61714844 72.94425781 129.2265625 71.8671875 C125.44742629 63.02608902 117.9591685 56.79053241 109.33984375 52.92578125 C94.50339521 47.05560044 78.79736021 49 63 49 Z " fill="#FFFFFF" transform="translate(430,501)"/>
<path d="M0 0 C17.93513478 15.69964225 29.40708088 37.16983853 32 61 C33.37873246 89.20306943 28.46301496 115.30183315 9 137 C8.18789063 137.90621094 7.37578125 138.81242188 6.5390625 139.74609375 C-13.05081549 160.45621403 -40.75218215 169.93583245 -68.73828125 171.1640625 C-100.18886568 172.02779814 -129.62155579 162.54114246 -152.6875 140.75 C-170.66610829 121.99112661 -179.45783911 97.11904554 -179.30029297 71.31298828 C-178.58179817 44.22379253 -168.62722176 20.71849267 -149 2 C-109.61313984 -34.3665845 -40.4725552 -34.3989845 0 0 Z M-100 37 C-100.68835938 37.64839844 -101.37671875 38.29679688 -102.0859375 38.96484375 C-111.50848182 48.65009841 -114.90486677 60.98722782 -115.03125 74.2890625 C-114.35530407 88.45012971 -109.29377545 100.62115404 -98.98046875 110.43359375 C-89.56950331 117.87698062 -78.71579814 119.94212644 -67 119 C-57.23810297 117.39009194 -48.28314091 112.25854934 -42.0625 104.5625 C-33.72936596 92.8402923 -30.10236968 79.40402257 -32.30029297 65.03710938 C-33.91843453 56.37129138 -36.3088838 48.90047839 -42 42 C-42.61617188 41.17113281 -43.23234375 40.34226562 -43.8671875 39.48828125 C-50.36303332 31.90979446 -60.07147191 27.76347417 -69.8359375 26.6875 C-81.04294668 26.21686444 -91.78848647 29.19032649 -100 37 Z " fill="#FFFFFF" transform="translate(376,521)"/>
<path d="M0 0 C50.16 0 100.32 0 152 0 C152 15.84 152 31.68 152 48 C122.3 48 92.6 48 62 48 C62 54.93 62 61.86 62 69 C88.07 69 114.14 69 141 69 C141 84.18 141 99.36 141 115 C114.93 115 88.86 115 62 115 C62 122.59 62 130.18 62 138 C92.69 138 123.38 138 155 138 C155 154.17 155 170.34 155 187 C103.85 187 52.7 187 0 187 C0 125.29 0 63.58 0 0 Z " fill="#FFFFFF" transform="translate(650,501)"/>
<path d="M0 0 C64.37364493 -6.24816201 64.37364493 -6.24816201 77.78320312 3.51855469 C86.27626939 11.35218118 91.36266854 22.09231434 95.2800293 32.80883789 C96.88951482 37.10874964 99.19492072 40.37823311 102 44 C104.54085437 40.91549435 106.89797018 37.77352962 109.09436035 34.43408203 C109.8826634 33.24267609 110.68882935 32.06294504 111.51013184 30.89404297 C114.39363447 26.72068071 116.70907077 22.57327713 118.81347656 17.9543457 C122.76034331 9.9742046 126.82177448 1.78846568 135.67687988 -1.26992798 C145.30646183 -3.17751468 155.36280177 -2.30729311 165.08441162 -1.64794922 C169.13786554 -1.39968451 173.19499915 -1.2922743 177.25390625 -1.171875 C185.17927124 -0.91653642 193.08687425 -0.50877511 201 0 C198.87478929 3.78253985 196.78653743 7.48279561 194.22265625 10.98828125 C193.71605469 11.68501953 193.20945312 12.38175781 192.6875 13.09960938 C192.15125 13.82986328 191.615 14.56011719 191.0625 15.3125 C189.89704198 16.91269237 188.73168008 18.51295475 187.56640625 20.11328125 C186.67719482 21.33072021 186.67719482 21.33072021 185.77001953 22.57275391 C182.99956983 26.37190025 180.25033199 30.18627884 177.5 34 C176.42069809 35.49488205 175.34127058 36.98967342 174.26171875 38.484375 C173.72595215 39.22623047 173.19018555 39.96808594 172.63818359 40.73242188 C170.97426906 43.03561684 169.30949593 45.33818908 167.64453125 47.640625 C161.48544401 56.1596019 155.34646993 64.69216056 149.24560547 73.25292969 C146.95769559 76.46192285 144.66605685 79.66825328 142.375 82.875 C141.52863112 84.05988533 140.68227552 85.24478013 139.8359375 86.4296875 C139.23007812 87.27789063 138.62421875 88.12609375 138 89 C139.80266948 93.00817012 142.31809572 96.52763082 144.8125 100.125 C145.29533447 100.82439697 145.77816895 101.52379395 146.27563477 102.24438477 C150.46932028 108.29151455 154.76805551 114.26026434 159.09106445 120.21533203 C162.76792691 125.2823403 166.40012919 130.37804414 170 135.5 C174.08025359 141.30401143 178.20931823 147.06952735 182.375 152.8125 C187.18126694 159.45411305 191.95657586 166.11697743 196.6875 172.8125 C197.28804199 173.65466064 197.88858398 174.49682129 198.50732422 175.36450195 C199.06564941 176.15816162 199.62397461 176.95182129 200.19921875 177.76953125 C200.69252686 178.46667236 201.18583496 179.16381348 201.6940918 179.88208008 C203.10878712 182.17643079 204.02694492 184.49141688 205 187 C195.69076058 187.4423594 186.38518477 187.77879976 177.0676918 187.98443127 C172.73940684 188.0831952 168.41835566 188.21674833 164.09423828 188.43334961 C136.28828393 189.78966094 136.28828393 189.78966094 129.34399414 185.27218628 C125.18916264 180.94726069 122.95820584 175.96326295 120.92565918 170.38180542 C119.60451046 166.98236936 117.77100974 164.31621338 115.6875 161.32421875 C115.06746094 160.37482422 114.44742188 159.42542969 113.80859375 158.44726562 C113.21175781 157.53654297 112.61492187 156.62582031 112 155.6875 C111.05833984 154.24600586 111.05833984 154.24600586 110.09765625 152.77539062 C107.0863059 148.16923422 104.0632101 143.57184108 101 139 C97.15956979 143.49275209 94.18686375 148.40352449 91.125 153.4375 C89.50770398 156.08926329 87.88349321 158.71461206 86.16357422 161.30175781 C84.29062462 164.26910348 83.04353855 167.32435349 81.74658203 170.58105469 C78.86005559 177.08340492 75.90452547 182.79894185 70 187 C58.86133573 190.43283251 46.6834215 189.18027377 35.19866943 188.51062012 C30.89003667 188.2835757 26.57854194 188.18468786 22.265625 188.07421875 C13.83589966 187.83977535 5.42010997 187.4656136 -3 187 C-0.76757498 182.45721546 2.01214441 178.41814541 4.875 174.25 C5.45435303 173.40453613 6.03370605 172.55907227 6.63061523 171.68798828 C10.79527259 165.65141572 15.11437411 159.7552077 19.55053711 153.91650391 C23.63575363 148.52806513 27.54924765 143.03254736 31.42993164 137.49560547 C35.07547107 132.2975007 38.77375344 127.14051137 42.5 122 C44.66842159 119.00126508 46.8347191 116.00100335 49 113 C49.56380371 112.21931152 50.12760742 111.43862305 50.70849609 110.63427734 C52.37396996 108.32278419 54.03174422 106.00596095 55.6875 103.6875 C56.1928125 102.98818359 56.698125 102.28886719 57.21875 101.56835938 C58.52127297 99.73657432 59.7686975 97.8800738 61 96 C61.556875 95.18789063 62.11375 94.37578125 62.6875 93.5390625 C63.15362305 89.75181275 61.34371807 87.94223984 59.11303711 84.97436523 C58.51885986 84.21969971 57.92468262 83.46503418 57.3125 82.6875 C56.08945659 81.06898344 54.86813115 79.44916739 53.6484375 77.828125 C52.7217627 76.61092773 52.7217627 76.61092773 51.77636719 75.36914062 C49.22264906 71.96324719 46.82359057 68.46190496 44.4375 64.9375 C40.24721297 58.79483386 35.98771212 52.70520253 31.69116211 46.63647461 C27.18348516 40.26763789 22.70722024 33.87716905 18.24023438 27.47973633 C15.33796463 23.32653008 12.42377675 19.18284344 9.48046875 15.05859375 C8.92552734 14.27935547 8.37058594 13.50011719 7.79882812 12.69726562 C6.7499176 11.22624808 5.69798587 9.7573786 4.64257812 8.29101562 C2.68952072 5.54917155 1.07108583 3.21325748 0 0 Z " fill="#FFFFFF" transform="translate(812,501)"/>
<path d="M0 0 C41.58 0 83.16 0 126 0 C126.1209091 31.99613105 126.1209091 31.99613105 126.14648438 45.47851562 C126.16423526 54.76120009 126.18502045 64.04380243 126.22631836 73.32641602 C126.25639055 80.08907417 126.2756149 86.85166523 126.28226548 93.61438841 C126.28614786 97.18920326 126.29515429 100.76382632 126.31719017 104.33857918 C126.46223576 128.84556862 125.67402347 152.84772878 107.75 171.75 C90.93977435 187.69024736 67.6793968 191.46333766 45.37109375 191.15234375 C19.86963291 190.47342697 -2.13817282 182.18956713 -20 164 C-18.59160505 159.70554982 -16.54145224 157.12953521 -13.4375 153.875 C-10.03153406 150.24209267 -6.75712108 146.56400086 -3.625 142.6875 C0.01318056 138.20474181 3.66609332 133.73689561 7.375 129.3125 C7.88724121 128.68754639 8.39948242 128.06259277 8.92724609 127.41870117 C10.21930623 125.887998 11.60364154 124.43619451 13 123 C13.99 123 14.98 123 16 123 C17.4375 124.50390625 17.4375 124.50390625 19 126.5625 C24.92120919 133.61036633 32.79642281 138.81244165 42 140 C47.94563653 140.06204142 53.47492354 139.07844553 58 135 C63.05288116 128.07340607 63.10175671 119.85946289 63.20532227 111.57421875 C63.21522186 110.88054703 63.22512146 110.18687531 63.23532104 109.47218323 C63.26656216 107.21065522 63.29154319 104.94910631 63.31640625 102.6875 C63.3370082 101.10709123 63.35800546 99.52668758 63.37937927 97.94628906 C63.43426554 93.81016202 63.48382063 89.67398804 63.53222656 85.53778076 C63.59157785 80.56244334 63.65761965 75.58719067 63.72252655 70.61192322 C63.82011452 63.07466775 63.90925828 55.53735499 64 48 C42.88 48 21.76 48 0 48 C0 32.16 0 16.32 0 0 Z " fill="#FFFFFF" transform="translate(50,501)"/>
<path d="M0 0 C-12 12 -12 12 -13.734375 13.59375 C-29.45961153 28.43837329 -41.46835073 50.02677936 -46.5234375 70.97265625 C-46.76441162 71.96604004 -47.00538574 72.95942383 -47.25366211 73.98291016 C-47.69984635 75.9106937 -48.11128028 77.84694755 -48.48266602 79.79052734 C-49.94525847 86.2325208 -49.94525847 86.2325208 -53.01782227 88.46826172 C-55.32375454 89.52724708 -57.55763792 90.31915621 -60 91 C-61.37865234 91.40992188 -61.37865234 91.40992188 -62.78515625 91.828125 C-67.95020589 92.7849438 -72.74586443 93.19459761 -78 93 C-79.57805917 73.11645449 -68.5181103 51.80774757 -56 37 C-53.08287849 33.58236718 -50.08727007 30.26445253 -47 27 C-46.26910156 26.21625 -45.53820312 25.4325 -44.78515625 24.625 C-36.53701429 16.04345335 -13.00927182 -4.44434399 0 0 Z " fill="#FFFFFF" transform="translate(470,244)"/>
<path d="M0 0 C5.40599123 0.5085533 9.66373439 1.93360924 14.5 4.4375 C15.18126953 4.78441895 15.86253906 5.13133789 16.56445312 5.48876953 C21.72012484 8.18162382 26.64560434 11.17365011 31.5 14.375 C32.15291016 14.80353271 32.80582031 15.23206543 33.47851562 15.67358398 C35.02617254 16.72512715 36.51962016 17.8556834 38 19 C38 19.66 38 20.32 38 21 C38.59603027 21.27368408 39.19206055 21.54736816 39.80615234 21.8293457 C58.32185791 31.70947126 70.08122151 56.68044323 75.9375 75.8125 C77.74583767 82.01921316 78.51599181 87.49850317 78 94 C59.25055765 93.3862703 59.25055765 93.3862703 52 89 C50.52654789 86.46042209 49.75756147 83.82537272 49 81 C48.72857178 80.00214478 48.72857178 80.00214478 48.45166016 78.98413086 C48.09797159 77.62909668 47.75318077 76.27171437 47.41650391 74.91235352 C43.60313768 59.68467782 37.26424344 44.73111209 28 32 C27.6169873 31.47325684 27.23397461 30.94651367 26.83935547 30.40380859 C22.00625419 23.81046879 17.0075915 17.57405397 11 12 C7.08739296 8.1828224 3.50910036 4.18439115 0 0 Z " fill="#FFFFFF" transform="translate(579,243)"/>
<path d="M0 0 C1.48691849 -0.00956978 1.48691849 -0.00956978 3.00387573 -0.01933289 C4.62255051 -0.02100212 4.62255051 -0.02100212 6.27392578 -0.02270508 C7.37519806 -0.02603348 8.47647034 -0.02936188 9.6111145 -0.03279114 C11.9464679 -0.03786561 14.28182859 -0.0401993 16.6171875 -0.04003906 C20.19689872 -0.0422227 23.77630053 -0.06036529 27.35595703 -0.0793457 C29.62027889 -0.08228003 31.88460222 -0.08426456 34.14892578 -0.08520508 C35.22399384 -0.09239059 36.29906189 -0.09957611 37.40670776 -0.10697937 C38.90308273 -0.10236443 38.90308273 -0.10236443 40.4296875 -0.09765625 C41.30825409 -0.09908127 42.18682068 -0.10050629 43.0920105 -0.10197449 C45.34423828 0.14526367 45.34423828 0.14526367 48.34423828 2.14526367 C50.52856756 9.42246763 50.95368576 17.59094951 50.34423828 25.14526367 C48.62600738 26.86349458 46.35826079 26.27280688 44.01416016 26.2746582 C42.87628052 26.27781036 41.73840088 26.28096252 40.56604004 26.28421021 C39.32753296 26.28218597 38.08902588 26.28016174 36.81298828 26.27807617 C35.55160034 26.2790329 34.2902124 26.27998962 32.99060059 26.28097534 C30.3172669 26.28165742 27.64402391 26.28029896 24.97070312 26.27563477 C21.53717137 26.26993748 18.10371778 26.27321668 14.6701889 26.27920723 C11.40528585 26.28368129 8.14039235 26.28055251 4.87548828 26.27807617 C3.6369812 26.2801004 2.39847412 26.28212463 1.12243652 26.28421021 C-0.01544312 26.28105804 -1.15332275 26.27790588 -2.32568359 26.2746582 C-3.33304565 26.27386261 -4.34040771 26.27306702 -5.3782959 26.27224731 C-7.65576172 26.14526367 -7.65576172 26.14526367 -8.65576172 25.14526367 C-8.61700899 22.42064893 -8.50912212 19.73764777 -8.34326172 17.02026367 C-8.3078125 16.27260742 -8.27236328 15.52495117 -8.23583984 14.75463867 C-7.37659542 0.03206258 -7.37659542 0.03206258 0 0 Z " fill="#FFFFFF" transform="translate(503.65576171875,305.854736328125)"/>
<path d="M0 0 C4.97870634 0.95406928 8.10087276 3.91962237 12 7 C12.80050781 7.60199219 13.60101562 8.20398438 14.42578125 8.82421875 C31.77463978 22.12590966 44.3707084 41.66694175 52 62 C52.30309082 62.80131348 52.60618164 63.60262695 52.91845703 64.42822266 C54.47217266 68.76640107 55.35984573 72.32200549 55 77 C47.63929856 73.80573334 42.05836848 69.20654623 36 64 C35.23558594 63.38253906 34.47117187 62.76507813 33.68359375 62.12890625 C17.22055146 48.43424674 4.05425593 27.00841711 0 6 C-0.125 2.5 -0.125 2.5 0 0 Z " fill="#FFFFFF" transform="translate(561,247)"/>
<path d="M0 0 C0.99 0.33 1.98 0.66 3 1 C0.34987283 20.00780867 -8.99337815 36.38562575 -21 51 C-21.74894531 51.928125 -22.49789063 52.85625 -23.26953125 53.8125 C-30.82939705 62.67312636 -41.67475995 73.41775315 -53 77 C-54 75 -54 75 -53.21484375 72.015625 C-46.62831858 52.59846823 -38.18161458 36.71986859 -25 21 C-24.52433594 20.39027344 -24.04867188 19.78054688 -23.55859375 19.15234375 C-17.29429579 11.31750955 -8.81845263 4.72417105 0 0 Z " fill="#FFFFFF" transform="translate(486,247)"/>
<path d="M0 0 C1.58669495 -0.00472824 1.58669495 -0.00472824 3.20544434 -0.009552 C4.93196228 -0.00651566 4.93196228 -0.00651566 6.69335938 -0.00341797 C8.45226501 -0.00485306 8.45226501 -0.00485306 10.2467041 -0.00631714 C12.73169 -0.00699917 15.21667766 -0.00514331 17.70166016 -0.00097656 C21.52054825 0.00437134 25.33931872 -0.00092083 29.15820312 -0.00732422 C31.56575547 -0.00666344 33.97330774 -0.00538229 36.38085938 -0.00341797 C38.10737732 -0.00645432 38.10737732 -0.00645432 39.86877441 -0.009552 C40.92657104 -0.00639984 41.98436768 -0.00324768 43.07421875 0 C44.47867249 0.00119339 44.47867249 0.00119339 45.91149902 0.00241089 C48.03710938 0.12939453 48.03710938 0.12939453 49.03710938 1.12939453 C48.76304112 9.35144223 46.47382463 17.809957 41.97021484 24.78076172 C38.85169646 26.95639894 35.42477584 26.5562349 31.75585938 26.52783203 C30.54101868 26.5321373 30.54101868 26.5321373 29.30163574 26.53652954 C27.59024353 26.53856996 25.87882799 26.53304163 24.16748047 26.52050781 C21.54667048 26.5044531 18.9274026 26.52035647 16.30664062 26.53955078 C14.6438768 26.53756834 12.98111394 26.53372466 11.31835938 26.52783203 C10.53392456 26.53390472 9.74948975 26.53997742 8.94128418 26.54623413 C3.5485546 26.47645828 3.5485546 26.47645828 1.11987305 24.82836914 C-0.77351729 21.85743265 -1.94253288 18.6064429 -3.15039062 15.31689453 C-3.5593457 14.26791992 -3.5593457 14.26791992 -3.9765625 13.19775391 C-5.52464597 9.05013177 -6.3829355 5.62594054 -5.96289062 1.12939453 C-4.29572378 -0.53777231 -2.28982922 0.00194571 0 0 Z " fill="#FFFFFF" transform="translate(502.962890625,342.87060546875)"/>
<path d="M0 0 C0.99 0 1.98 0 3 0 C4.8671875 2.265625 4.8671875 2.265625 6.875 5.25 C9.00961261 8.41424928 10.74892109 10.80226647 13.7578125 13.171875 C14.49773438 13.77515625 15.23765625 14.3784375 16 15 C16 15.99 16 16.98 16 18 C6.43 18 -3.14 18 -13 18 C-11.22152744 14.44305489 -9.71708185 12.41481606 -7.0625 9.5625 C-4.83349389 7.16683922 -3.04193193 5.07455728 -1.43359375 2.21484375 C-0.96050781 1.48394531 -0.48742187 0.75304687 0 0 Z " fill="#FFFFFF" transform="translate(523,277)"/>
<path d="M0 0 C6.27 0 12.54 0 19 0 C17.80178581 4.79285678 15.9799514 7.14334389 12 10 C8.17101048 10.39271687 6.06256254 8.42274074 3.1875 6.125 C1.35546875 4.5703125 1.35546875 4.5703125 0 3 C0 2.01 0 1.02 0 0 Z " fill="#FFFFFF" transform="translate(515,380)"/>
<path d="M0 0 C2.54951033 1.34184754 4.58114404 2.4669106 6.375 4.75 C7.27816014 8.00137649 6.62916416 10.72834637 6 14 C5.34 14 4.68 14 4 14 C3.32471777 12.42032193 2.66010306 10.83608097 2 9.25 C1.62875 8.36828125 1.2575 7.4865625 0.875 6.578125 C0 4 0 4 0 0 Z " fill="#FFFFFF" transform="translate(547,184)"/>
<path d="M0 0 C0.99 0.66 1.98 1.32 3 2 C2.38125 3.051875 1.7625 4.10375 1.125 5.1875 C-0.51579108 8.05015677 -1.86984453 10.89207246 -3 14 C-3.66 13.67 -4.32 13.34 -5 13 C-5.61538462 5.73846154 -5.61538462 5.73846154 -2.5 2 C-1.675 1.34 -0.85 0.68 0 0 Z " fill="#FFFFFF" transform="translate(500,184)"/>
</svg>
