<?xml version="1.0" encoding="UTF-8"?>
<svg version="1.1" xmlns="http://www.w3.org/2000/svg" width="2000" height="528">
<path d="M0 0 C11.9720586 6.65097948 19.15140224 16.53831434 25.25 28.5625 C25.25 29.5525 25.25 30.5425 25.25 31.5625 C25.91 31.5625 26.57 31.5625 27.25 31.5625 C28.0853125 33.295 28.0853125 33.295 28.9375 35.0625 C30.80489299 38.8307518 32.94927114 42.31473094 35.296875 45.80078125 C36.25 47.5625 36.25 47.5625 36.25 50.5625 C36.91 50.5625 37.57 50.5625 38.25 50.5625 C38.52972656 51.15675781 38.80945313 51.75101563 39.09765625 52.36328125 C41.88247736 58.12096605 45.03556467 63.45503125 48.515625 68.81640625 C50.64504311 72.18798492 52.52001936 75.65820281 54.40234375 79.171875 C60.82959347 90.9664897 67.63173984 102.56255329 74.46875 114.12329102 C77.69778276 119.59463668 80.85676405 125.10399001 84 130.625 C88.582365 138.67086796 93.2118733 146.68815745 97.875 154.6875 C98.47924805 155.72527588 99.08349609 156.76305176 99.70605469 157.83227539 C100.26969727 158.79770264 100.83333984 159.76312988 101.4140625 160.7578125 C101.91373535 161.61391113 102.4134082 162.47000977 102.92822266 163.35205078 C103.98531047 165.11985149 105.10745844 166.84868766 106.25 168.5625 C106.25 169.5525 106.25 170.5425 106.25 171.5625 C106.91 171.5625 107.57 171.5625 108.25 171.5625 C108.64832031 172.29855469 109.04664063 173.03460938 109.45703125 173.79296875 C109.98683594 174.76878906 110.51664063 175.74460938 111.0625 176.75 C111.58457031 177.71292969 112.10664062 178.67585937 112.64453125 179.66796875 C113.69170877 181.55594574 114.79185688 183.41576887 115.94921875 185.23828125 C117.25 187.5625 117.25 187.5625 117.25 190.5625 C117.91 190.5625 118.57 190.5625 119.25 190.5625 C120.2576952 192.3289657 121.25591714 194.10083823 122.25 195.875 C123.0853125 197.35419922 123.0853125 197.35419922 123.9375 198.86328125 C125.25 201.5625 125.25 201.5625 125.25 204.5625 C125.91 204.5625 126.57 204.5625 127.25 204.5625 C127.58 206.2125 127.91 207.8625 128.25 209.5625 C128.91 209.5625 129.57 209.5625 130.25 209.5625 C130.52972656 210.15675781 130.80945313 210.75101563 131.09765625 211.36328125 C133.88247736 217.12096605 137.03556467 222.45503125 140.515625 227.81640625 C142.63700696 231.17526103 144.50622399 234.63104893 146.37890625 238.1328125 C148.97823382 242.89734196 151.67753637 247.60300381 154.375 252.3125 C154.89022217 253.21210449 155.40544434 254.11170898 155.9362793 255.03857422 C156.43426025 255.90756348 156.93224121 256.77655273 157.4453125 257.671875 C157.92258789 258.50654297 158.39986328 259.34121094 158.89160156 260.20117188 C159.75502813 261.70208161 160.62595009 263.19872323 161.50683594 264.68945312 C164.25 269.35548593 164.25 269.35548593 164.25 271.5625 C164.91 271.5625 165.57 271.5625 166.25 271.5625 C166.54132813 272.16763428 166.83265625 272.77276855 167.1328125 273.39624023 C170.20662599 279.67496343 173.60101597 285.66530146 177.25 291.625 C180.62848737 297.16863473 183.92329332 302.7312822 187.04882812 308.42163086 C189.30159866 312.43678225 191.75515886 316.33445146 194.20703125 320.23046875 C196.30540629 323.65188704 197.79052138 326.54972009 198.25 330.5625 C198.91 330.5625 199.57 330.5625 200.25 330.5625 C201.2576952 332.3289657 202.25591714 334.10083823 203.25 335.875 C204.0853125 337.35419922 204.0853125 337.35419922 204.9375 338.86328125 C206.25 341.5625 206.25 341.5625 206.25 344.5625 C206.91 344.5625 207.57 344.5625 208.25 344.5625 C208.64832031 345.29855469 209.04664063 346.03460938 209.45703125 346.79296875 C209.98683594 347.76878906 210.51664063 348.74460937 211.0625 349.75 C211.58457031 350.71292969 212.10664062 351.67585938 212.64453125 352.66796875 C213.69170877 354.55594574 214.79185688 356.41576887 215.94921875 358.23828125 C217.25 360.5625 217.25 360.5625 217.25 363.5625 C217.91 363.5625 218.57 363.5625 219.25 363.5625 C219.54132813 364.16835938 219.83265625 364.77421875 220.1328125 365.3984375 C222.81535037 370.88161239 225.71166614 376.14155808 228.91796875 381.3359375 C229.35753906 382.07070313 229.79710937 382.80546875 230.25 383.5625 C230.60199463 384.14217529 230.95398926 384.72185059 231.31665039 385.3190918 C232.52003021 388.21154723 232.50907761 390.55370896 232.515625 393.68359375 C232.51820313 394.86630859 232.52078125 396.04902344 232.5234375 397.26757812 C232.51570313 398.49927734 232.50796875 399.73097656 232.5 401 C232.50773437 402.22783203 232.51546875 403.45566406 232.5234375 404.72070312 C232.51957031 406.49670898 232.51957031 406.49670898 232.515625 408.30859375 C232.51336914 409.38810303 232.51111328 410.4676123 232.50878906 411.57983398 C232.24559076 414.61331856 231.53020517 416.81679681 230.25 419.5625 C229.59 419.5625 228.93 419.5625 228.25 419.5625 C228.16621094 420.28695313 228.08242188 421.01140625 227.99609375 421.7578125 C225.68195352 430.4570412 215.68430695 437.22992376 208.25 441.5625 C204.06521192 443.61929428 200.29307896 443.84766176 195.71296406 443.82256222 C194.95886451 443.82636789 194.20476497 443.83017356 193.42781392 443.83409455 C190.89250591 443.84442827 188.35742106 443.84050089 185.82209778 443.83665466 C183.98937104 443.84110611 182.15664623 443.84641984 180.32392424 443.85252339 C175.280812 443.86672516 170.23776132 443.86836627 165.19463193 443.86792648 C159.75820027 443.86957277 154.32179411 443.8826358 148.88537598 443.89411926 C136.99488432 443.91698315 125.1044105 443.92489139 113.21389985 443.92994571 C105.79059918 443.93320115 98.3673037 443.93972271 90.94400597 443.9469471 C70.39436542 443.96651493 49.8447297 443.98291803 29.29507923 443.98582363 C27.32198556 443.98610499 27.32198556 443.98610499 25.30903141 443.98639202 C23.3100831 443.98666657 21.3111348 443.98694111 19.31218649 443.98721164 C17.3073268 443.98748336 15.30246711 443.98776004 13.29760742 443.98803711 C12.30388296 443.98816914 12.30388296 443.98816914 11.29008325 443.98830384 C-9.5219036 443.99120879 -30.33379755 444.01330005 -51.14575195 444.04956055 C-74.52811025 444.0902984 -97.9104059 444.1139627 -121.29280168 444.11428314 C-133.67303125 444.11486804 -146.05314125 444.12338069 -158.43334007 444.15228081 C-168.97497729 444.17677566 -179.51645133 444.18409033 -190.05810931 444.16903328 C-195.43658504 444.16185667 -200.81473844 444.1627545 -206.19317818 444.18544388 C-211.11890313 444.20602433 -216.04405772 444.20344197 -220.96977643 444.18256903 C-222.74974355 444.17907238 -224.52975173 444.18399157 -226.30966499 444.19827347 C-240.30558831 444.30331932 -249.12991421 441.76317683 -259.4921875 431.953125 C-267.65793213 423.30704245 -272.52632825 413.37934835 -272.4375 401.4375 C-272.4375 400.53040283 -272.4375 399.62330566 -272.4375 398.6887207 C-272.17548129 389.83857081 -269.25998705 383.05229992 -264.75 375.5625 C-264.09 375.5625 -263.43 375.5625 -262.75 375.5625 C-262.52054688 374.75039063 -262.29109375 373.93828125 -262.0546875 373.1015625 C-260.44279607 368.72918636 -258.24542662 364.93694774 -255.875 360.9375 C-255.39393799 360.11572266 -254.91287598 359.29394531 -254.41723633 358.44726562 C-250.29651881 351.42909597 -246.09037671 344.46208724 -241.88793945 337.49267578 C-238.88258777 332.4947577 -235.9799616 327.46452492 -233.23046875 322.3203125 C-227.9873962 312.55353355 -222.45398202 302.99178305 -216.58984375 293.5859375 C-214.3161535 289.8495548 -212.24190314 286.02566569 -210.17578125 282.171875 C-208.32451413 278.78380258 -206.33600907 275.48920545 -204.3359375 272.1875 C-202.51746137 269.17760847 -200.72206773 266.15512317 -198.9375 263.125 C-198.35355469 262.13628906 -197.76960938 261.14757812 -197.16796875 260.12890625 C-195.64965154 257.56478585 -195.64965154 257.56478585 -194.75 254.5625 C-194.09 254.5625 -193.43 254.5625 -192.75 254.5625 C-192.6571875 253.85351562 -192.564375 253.14453125 -192.46875 252.4140625 C-191.61988924 249.0462997 -190.18361673 246.81415111 -188.25 243.9375 C-186.34475236 241.08743694 -184.83564836 238.81944507 -183.75 235.5625 C-183.09 235.5625 -182.43 235.5625 -181.75 235.5625 C-181.6571875 235.02753906 -181.564375 234.49257813 -181.46875 233.94140625 C-180.52086275 230.80410551 -178.94428233 228.30181524 -177.25 225.5 C-174.64857559 221.19385264 -174.64857559 221.19385264 -172.75 216.5625 C-172.09 216.5625 -171.43 216.5625 -170.75 216.5625 C-170.6571875 215.85738281 -170.564375 215.15226563 -170.46875 214.42578125 C-169.61095419 211.0085838 -168.16358658 208.70770624 -166.25 205.75 C-163.13616684 200.84977276 -160.19335677 195.88840852 -157.375 190.8125 C-154.29968157 185.28977653 -151.15817782 179.81425322 -147.9375 174.375 C-144.04891708 167.80201071 -140.22549573 161.1939781 -136.4375 154.5625 C-135.94596436 153.70245361 -135.45442871 152.84240723 -134.94799805 151.95629883 C-132.68229225 147.98293715 -130.43722284 144.00075493 -128.234375 139.9921875 C-125.72983587 135.47061319 -123.03748008 131.07864901 -120.3125 126.6875 C-116.70880902 120.841887 -113.24794904 114.96624458 -110.02734375 108.8984375 C-108.39580461 105.91476654 -106.59247398 103.06297805 -104.73046875 100.21875 C-103.58295659 98.41328729 -103.58295659 98.41328729 -102.75 95.5625 C-102.09 95.5625 -101.43 95.5625 -100.75 95.5625 C-100.6571875 95.02753906 -100.564375 94.49257812 -100.46875 93.94140625 C-99.52086275 90.80410551 -97.94428233 88.30181524 -96.25 85.5 C-93.64857559 81.19385264 -93.64857559 81.19385264 -91.75 76.5625 C-91.09 76.5625 -90.43 76.5625 -89.75 76.5625 C-89.63785156 75.83675781 -89.52570313 75.11101562 -89.41015625 74.36328125 C-88.72038613 71.43686007 -87.69489186 69.33962191 -86.1875 66.75 C-85.73246094 65.95980469 -85.27742187 65.16960937 -84.80859375 64.35546875 C-84.45925781 63.76378906 -84.10992187 63.17210938 -83.75 62.5625 C-83.09 62.5625 -82.43 62.5625 -81.75 62.5625 C-81.46511719 61.83289063 -81.18023437 61.10328125 -80.88671875 60.3515625 C-77.83886309 52.87331871 -73.89989414 46.10689878 -69.5078125 39.34765625 C-66.68704822 34.87831195 -64.23417723 30.2244074 -61.75 25.5625 C-60.62698109 23.49892064 -59.50203366 21.43638943 -58.375 19.375 C-57.87226563 18.45332031 -57.36953125 17.53164062 -56.8515625 16.58203125 C-56.48804688 15.91558594 -56.12453125 15.24914062 -55.75 14.5625 C-55.09 14.5625 -54.43 14.5625 -53.75 14.5625 C-53.49347656 13.97339844 -53.23695313 13.38429688 -52.97265625 12.77734375 C-49.23952939 6.01477848 -41.51295714 1.8043484 -34.75 -1.4375 C-34.0384375 -1.79972656 -33.326875 -2.16195312 -32.59375 -2.53515625 C-22.32176146 -5.79453723 -9.55119694 -4.87964201 0 0 Z " fill="#020746" transform="translate(510.75,51.4375)"/>
<path d="M0 0 C26.60625 -0.12375 26.60625 -0.12375 53.75 -0.25 C59.31069336 -0.28641602 64.87138672 -0.32283203 70.60058594 -0.36035156 C77.49267578 -0.37841797 77.49267578 -0.37841797 80.73883057 -0.3817749 C82.96298442 -0.38783983 85.18712675 -0.40174314 87.41119385 -0.42230225 C116.68624897 -0.67893338 143.46099491 4.4335203 167 23 C167.98484375 23.77601563 168.9696875 24.55203125 169.984375 25.3515625 C185.82958699 38.69796985 194.80099937 59.77741478 197 80 C198.30653654 108.59295138 194.03944735 132.54189875 175.8125 155.1875 C153.55631844 179.02611649 123.42899107 185.25394494 92 187 C61.64 187 31.28 187 0 187 C0 125.29 0 63.58 0 0 Z M63 49 C63 78.04 63 107.08 63 137 C95.32005199 138.52234563 95.32005199 138.52234563 121.8046875 124.29296875 C131.45653217 114.21177156 133.42308619 102.7083503 133.21875 89.0859375 C133.02166487 83.7621755 131.87709193 78.97837426 130 74 C129.61714844 72.94425781 129.61714844 72.94425781 129.2265625 71.8671875 C125.44742629 63.02608902 117.9591685 56.79053241 109.33984375 52.92578125 C94.50339521 47.05560044 78.79736021 49 63 49 Z " fill="#020747" transform="translate(1140,179)"/>
<path d="M0 0 C17.93513478 15.69964225 29.40708088 37.16983853 32 61 C33.37873246 89.20306943 28.46301496 115.30183315 9 137 C8.18789062 137.90621094 7.37578125 138.81242188 6.5390625 139.74609375 C-13.05081549 160.45621403 -40.75218215 169.93583245 -68.73828125 171.1640625 C-100.18886568 172.02779814 -129.62155579 162.54114246 -152.6875 140.75 C-170.66610829 121.99112661 -179.45783911 97.11904554 -179.30029297 71.31298828 C-178.58179817 44.22379253 -168.62722176 20.71849267 -149 2 C-109.61313984 -34.3665845 -40.4725552 -34.3989845 0 0 Z M-100 37 C-100.68835938 37.64839844 -101.37671875 38.29679687 -102.0859375 38.96484375 C-111.50848182 48.65009841 -114.90486677 60.98722782 -115.03125 74.2890625 C-114.35530407 88.45012971 -109.29377545 100.62115404 -98.98046875 110.43359375 C-89.56950331 117.87698062 -78.71579814 119.94212644 -67 119 C-57.23810297 117.39009194 -48.28314091 112.25854934 -42.0625 104.5625 C-33.72936596 92.8402923 -30.10236968 79.40402257 -32.30029297 65.03710938 C-33.91843453 56.37129138 -36.3088838 48.90047839 -42 42 C-42.61617187 41.17113281 -43.23234375 40.34226562 -43.8671875 39.48828125 C-50.36303332 31.90979446 -60.07147191 27.76347417 -69.8359375 26.6875 C-81.04294668 26.21686444 -91.78848647 29.19032649 -100 37 Z " fill="#020747" transform="translate(1086,199)"/>
<path d="M0 0 C0.63421875 0.34546875 1.2684375 0.6909375 1.921875 1.046875 C5.38736831 3.13989571 7.53222239 5.85145615 10 9 C10.99 9.33 11.98 9.66 13 10 C13.27070313 9.40058594 13.54140625 8.80117188 13.8203125 8.18359375 C17.21183655 1.90590519 23.94112665 -1.60899628 30.39453125 -4.078125 C52.7461621 -9.79316821 77.05044192 -0.34201842 96.375 10.4375 C101.98370601 13.84062027 107.03196689 17.72573717 112 22 C112.83402344 22.7115625 113.66804687 23.423125 114.52734375 24.15625 C124.61700381 32.98664586 132.72061263 42.79375046 140 54 C140.63035156 54.96808594 141.26070312 55.93617188 141.91015625 56.93359375 C146.82167512 64.88917486 150.04936842 73.17607334 153 82 C153.51433594 83.44246094 153.51433594 83.44246094 154.0390625 84.9140625 C157.0489202 94.67500288 156.84035198 105.86866565 156 116 C153.63461653 118.36538347 147.21857905 117.31066706 143.91577148 117.3190918 C113.54547798 116.88350417 86.62058104 98.95728792 66 78 C49.7028891 61.16373656 34.98097351 36.17459339 34.8125 12.125 C34.874375 11.09375 34.93625 10.0625 35 9 C28.58235224 10.68081251 24.15937376 13.83698477 20.625 19.375 C18.32671471 24.50194411 18.3410262 28.17340701 20.25 33.46484375 C25.05092807 42.99168539 29.85330049 49.74363023 39.25 55.125 C45.49000878 58.70846599 47.69272538 62.55324716 49.6875 69.375 C56.31346437 94.47222816 53.25561604 121.77787237 40.390625 144.15234375 C33.80947473 155.04334486 24.1426999 166.57151929 13 173 C9.01465552 172.704672 6.95240809 171.48579045 4.07421875 168.7890625 C3.36386475 168.12720947 2.65351074 167.46535645 1.92163086 166.78344727 C1.18436768 166.07115967 0.44710449 165.35887207 -0.3125 164.625 C-1.07361084 163.894021 -1.83472168 163.16304199 -2.61889648 162.40991211 C-18.77839311 146.62900444 -28.63930342 126.2392122 -29.30078125 103.484375 C-29.31971219 101.23965976 -29.32328287 98.99476917 -29.3125 96.75 C-29.30730347 94.98317871 -29.30730347 94.98317871 -29.30200195 93.18066406 C-29.1610303 81.83750832 -28.9498116 67.49354651 -21.5546875 58.1796875 C-19.81667227 56.86089203 -18.12124109 56.00272468 -16.125 55.125 C-12.31576029 53.28294065 -9.82818741 51.20031733 -7 48 C-6.51789063 47.52046875 -6.03578125 47.0409375 -5.5390625 46.546875 C-0.21535523 40.97995268 3.60051438 33.61434837 4.26953125 25.88671875 C3.75361586 20.36119012 0.44463454 16.40759263 -3.4375 12.625 C-6.21768261 10.86195737 -8.83714511 9.88265718 -12 9 C-11.938125 10.0725 -11.87625 11.145 -11.8125 12.25 C-11.83295437 18.08972135 -13.38415474 23.42336332 -15 29 C-15.31710937 30.14597656 -15.63421875 31.29195313 -15.9609375 32.47265625 C-20.54618223 47.67550667 -28.35227209 61.22153992 -39 73 C-39.71800781 73.83660156 -40.43601562 74.67320312 -41.17578125 75.53515625 C-60.08502047 97.26566739 -86.73859426 114.44286388 -116 117 C-121.33222884 117.2348837 -126.66989405 117.28506786 -132 117 C-134.6295565 114.3704435 -133.37219111 107.28256128 -133.38720703 103.76733398 C-133.01685047 78.88478296 -120.8278883 56.53772131 -105 38 C-104.33742188 37.20335937 -103.67484375 36.40671875 -102.9921875 35.5859375 C-80.89180743 9.89730384 -33.85050153 -18.99995893 0 0 Z " fill="#E5CD16" transform="translate(480,258)"/>
<path d="M0 0 C50.16 0 100.32 0 152 0 C152 15.84 152 31.68 152 48 C122.3 48 92.6 48 62 48 C62 54.93 62 61.86 62 69 C88.07 69 114.14 69 141 69 C141 84.18 141 99.36 141 115 C114.93 115 88.86 115 62 115 C62 122.59 62 130.18 62 138 C92.69 138 123.38 138 155 138 C155 154.17 155 170.34 155 187 C103.85 187 52.7 187 0 187 C0 125.29 0 63.58 0 0 Z " fill="#020747" transform="translate(1360,179)"/>
<path d="M0 0 C64.37364493 -6.24816201 64.37364493 -6.24816201 77.78320312 3.51855469 C86.27626939 11.35218118 91.36266854 22.09231434 95.2800293 32.80883789 C96.88951482 37.10874964 99.19492072 40.37823311 102 44 C104.54085437 40.91549435 106.89797018 37.77352962 109.09436035 34.43408203 C109.8826634 33.24267609 110.68882935 32.06294504 111.51013184 30.89404297 C114.39363447 26.72068071 116.70907077 22.57327713 118.81347656 17.9543457 C122.76034331 9.9742046 126.82177448 1.78846568 135.67687988 -1.26992798 C145.30646183 -3.17751468 155.36280177 -2.30729311 165.08441162 -1.64794922 C169.13786554 -1.39968451 173.19499915 -1.2922743 177.25390625 -1.171875 C185.17927124 -0.91653642 193.08687425 -0.50877511 201 0 C198.87478929 3.78253985 196.78653743 7.48279561 194.22265625 10.98828125 C193.71605469 11.68501953 193.20945312 12.38175781 192.6875 13.09960938 C192.15125 13.82986328 191.615 14.56011719 191.0625 15.3125 C189.89704198 16.91269237 188.73168008 18.51295475 187.56640625 20.11328125 C186.67719482 21.33072021 186.67719482 21.33072021 185.77001953 22.57275391 C182.99956983 26.37190025 180.25033199 30.18627884 177.5 34 C176.42069809 35.49488205 175.34127058 36.98967342 174.26171875 38.484375 C173.72595215 39.22623047 173.19018555 39.96808594 172.63818359 40.73242188 C170.97426906 43.03561684 169.30949593 45.33818908 167.64453125 47.640625 C161.48544401 56.1596019 155.34646993 64.69216056 149.24560547 73.25292969 C146.95769559 76.46192285 144.66605685 79.66825328 142.375 82.875 C141.52863112 84.05988533 140.68227552 85.24478013 139.8359375 86.4296875 C139.23007813 87.27789062 138.62421875 88.12609375 138 89 C139.80266948 93.00817012 142.31809572 96.52763082 144.8125 100.125 C145.29533447 100.82439697 145.77816895 101.52379395 146.27563477 102.24438477 C150.46932028 108.29151455 154.76805551 114.26026434 159.09106445 120.21533203 C162.76792691 125.2823403 166.40012919 130.37804414 170 135.5 C174.08025359 141.30401143 178.20931823 147.06952735 182.375 152.8125 C187.18126694 159.45411305 191.95657586 166.11697743 196.6875 172.8125 C197.28804199 173.65466064 197.88858398 174.49682129 198.50732422 175.36450195 C199.06564941 176.15816162 199.62397461 176.95182129 200.19921875 177.76953125 C200.69252686 178.46667236 201.18583496 179.16381348 201.6940918 179.88208008 C203.10878712 182.17643079 204.02694492 184.49141688 205 187 C195.69076058 187.4423594 186.38518477 187.77879976 177.0676918 187.98443127 C172.73940684 188.0831952 168.41835566 188.21674833 164.09423828 188.43334961 C136.28828393 189.78966094 136.28828393 189.78966094 129.34399414 185.27218628 C125.18916264 180.94726069 122.95820584 175.96326295 120.92565918 170.38180542 C119.60451046 166.98236936 117.77100974 164.31621338 115.6875 161.32421875 C115.06746094 160.37482422 114.44742187 159.42542969 113.80859375 158.44726562 C113.21175781 157.53654297 112.61492187 156.62582031 112 155.6875 C111.05833984 154.24600586 111.05833984 154.24600586 110.09765625 152.77539062 C107.0863059 148.16923422 104.0632101 143.57184108 101 139 C97.15956979 143.49275209 94.18686375 148.40352449 91.125 153.4375 C89.50770398 156.08926329 87.88349321 158.71461206 86.16357422 161.30175781 C84.29062462 164.26910348 83.04353855 167.32435349 81.74658203 170.58105469 C78.86005559 177.08340492 75.90452547 182.79894185 70 187 C58.86133573 190.43283251 46.6834215 189.18027377 35.19866943 188.51062012 C30.89003667 188.2835757 26.57854194 188.18468786 22.265625 188.07421875 C13.83589966 187.83977535 5.42010997 187.4656136 -3 187 C-0.76757498 182.45721546 2.01214441 178.41814541 4.875 174.25 C5.45435303 173.40453613 6.03370605 172.55907227 6.63061523 171.68798828 C10.79527259 165.65141572 15.11437411 159.7552077 19.55053711 153.91650391 C23.63575363 148.52806513 27.54924765 143.03254736 31.42993164 137.49560547 C35.07547107 132.2975007 38.77375344 127.14051137 42.5 122 C44.66842159 119.00126508 46.8347191 116.00100335 49 113 C49.56380371 112.21931152 50.12760742 111.43862305 50.70849609 110.63427734 C52.37396996 108.32278419 54.03174422 106.00596095 55.6875 103.6875 C56.1928125 102.98818359 56.698125 102.28886719 57.21875 101.56835938 C58.52127297 99.73657432 59.7686975 97.8800738 61 96 C61.556875 95.18789063 62.11375 94.37578125 62.6875 93.5390625 C63.15362305 89.75181275 61.34371807 87.94223984 59.11303711 84.97436523 C58.51885986 84.21969971 57.92468262 83.46503418 57.3125 82.6875 C56.08945659 81.06898344 54.86813115 79.44916739 53.6484375 77.828125 C52.7217627 76.61092773 52.7217627 76.61092773 51.77636719 75.36914062 C49.22264906 71.96324719 46.82359057 68.46190496 44.4375 64.9375 C40.24721297 58.79483386 35.98771212 52.70520253 31.69116211 46.63647461 C27.18348516 40.26763789 22.70722024 33.87716905 18.24023438 27.47973633 C15.33796463 23.32653008 12.42377675 19.18284344 9.48046875 15.05859375 C8.92552734 14.27935547 8.37058594 13.50011719 7.79882812 12.69726562 C6.7499176 11.22624808 5.69798587 9.7573786 4.64257812 8.29101562 C2.68952072 5.54917155 1.07108583 3.21325748 0 0 Z " fill="#020747" transform="translate(1522,179)"/>
<path d="M0 0 C41.58 0 83.16 0 126 0 C126.1209091 31.99613105 126.1209091 31.99613105 126.14648438 45.47851562 C126.16423526 54.76120009 126.18502045 64.04380243 126.22631836 73.32641602 C126.25639055 80.08907417 126.2756149 86.85166523 126.28226548 93.61438841 C126.28614786 97.18920326 126.29515429 100.76382632 126.31719017 104.33857918 C126.46223576 128.84556862 125.67402347 152.84772878 107.75 171.75 C90.93977435 187.69024736 67.6793968 191.46333766 45.37109375 191.15234375 C19.86963291 190.47342697 -2.13817282 182.18956713 -20 164 C-18.59160505 159.70554982 -16.54145224 157.12953521 -13.4375 153.875 C-10.03153406 150.24209267 -6.75712108 146.56400086 -3.625 142.6875 C0.01318056 138.20474181 3.66609332 133.73689561 7.375 129.3125 C7.88724121 128.68754639 8.39948242 128.06259277 8.92724609 127.41870117 C10.21930623 125.887998 11.60364154 124.43619451 13 123 C13.99 123 14.98 123 16 123 C17.4375 124.50390625 17.4375 124.50390625 19 126.5625 C24.92120919 133.61036633 32.79642281 138.81244165 42 140 C47.94563653 140.06204142 53.47492354 139.07844553 58 135 C63.05288116 128.07340607 63.10175671 119.85946289 63.20532227 111.57421875 C63.21522186 110.88054703 63.22512146 110.18687531 63.23532104 109.47218323 C63.26656216 107.21065522 63.29154319 104.94910631 63.31640625 102.6875 C63.3370082 101.10709123 63.35800546 99.52668758 63.37937927 97.94628906 C63.43426554 93.81016202 63.48382063 89.67398804 63.53222656 85.53778076 C63.59157785 80.56244334 63.65761965 75.58719067 63.72252655 70.61192322 C63.82011452 63.07466775 63.90925828 55.53735499 64 48 C42.88 48 21.76 48 0 48 C0 32.16 0 16.32 0 0 Z " fill="#020747" transform="translate(760,179)"/>
<path d="M0 0 C8.9740178 1.02895124 15.69145391 6.8637015 21.328125 13.66796875 C24.59148097 18.21989285 27.3098594 23.09396852 30 28 C31.11375 27.75636719 31.11375 27.75636719 32.25 27.5078125 C37.56088745 26.52710885 42.75263501 26.68815875 48 28 C48.20625 27.195625 48.4125 26.39125 48.625 25.5625 C52.8022489 14.73962784 60.85713489 6.41812939 70.82421875 0.71484375 C73.54946701 -0.18052507 75.27270713 0.24056118 78 1 C78 1.66 78 2.32 78 3 C77.443125 3.14695313 76.88625 3.29390625 76.3125 3.4453125 C65.15872208 6.72361885 56.89527676 14.42672046 51 24.375 C49.82200234 26.99907293 49.82200234 26.99907293 50 30 C54.84633572 33.46268379 54.84633572 33.46268379 60.5625 33.4375 C64 33 64 33 67.3125 35.1875 C71.52534764 39.59629404 72.50170181 42.8421987 72.39453125 48.84375 C71.78470688 52.1766515 69.37824275 53.67838208 67 56 C66.34388528 58.20998661 66.34388528 58.20998661 66 60.6875 C64.69661177 68.71111011 61.52312516 75.76179558 54.93359375 80.75 C47.53716512 85.53152962 40.84700814 87.31665656 32 86 C23.60665653 83.29786948 16.94110061 77.91565348 12.6875 70.1875 C10.90172436 66.31455199 10.26752029 62.41762172 9.5703125 58.234375 C9.11926809 55.76748851 9.11926809 55.76748851 6.875 53.5625 C3.8436945 49.41971582 4.2478261 44.95243214 5 40 C7.04573386 36.54341521 8.66780385 35.2214641 12 33 C13.258125 33.20625 14.51625 33.4125 15.8125 33.625 C19.46695712 34.223981 19.89534455 34.06007998 23.375 32.0625 C24.674375 31.0415625 24.674375 31.0415625 26 30 C26.66 30 27.32 30 28 30 C21.65614198 17.35875912 14.91555656 8.76107318 1.375 3.625 C0.59125 3.41875 -0.1925 3.2125 -1 3 C-0.67 2.01 -0.34 1.02 0 0 Z " fill="#E7CF16" transform="translate(453,173)"/>
<path d="M0 0 C-0.83402344 0.75023437 -1.66804688 1.50046875 -2.52734375 2.2734375 C-12.54830574 11.35652108 -21.57530081 20.62210527 -29 32 C-29.64839844 32.97582031 -30.29679687 33.95164062 -30.96484375 34.95703125 C-39.455539 48.17383325 -46.00902656 62.80178246 -48.5546875 78.3984375 C-49.93174353 86.18917915 -49.93174353 86.18917915 -53.05859375 88.5625 C-55.69611956 89.68169972 -58.20190678 90.38965105 -61 91 C-61.86882812 91.21914063 -62.73765625 91.43828125 -63.6328125 91.6640625 C-68.49184387 92.77851924 -73.02588917 93.21626569 -78 93 C-78.71437286 68.21675685 -64.43040059 45.48203296 -48 28 C-38.95558475 18.52559952 -14.00219759 -4.6673992 0 0 Z " fill="#060A46" transform="translate(437,270)"/>
<path d="M0 0 C24.3639074 5.50337673 46.49071909 24.84225281 60.1171875 45.15625 C62.16121652 48.39584317 64.10135936 51.67335634 66 55 C66.5465625 55.93199219 67.093125 56.86398437 67.65625 57.82421875 C70.98391002 63.91078057 73.07662587 70.08282549 74.875 76.75 C75.09051514 77.54229004 75.30603027 78.33458008 75.52807617 79.15087891 C76.81118563 84.23333238 77.20334928 88.76076566 77 94 C68.19315536 93.63381103 59.11187351 92.60639955 51 89 C48.66485411 86.25820602 48.48133931 83.50064949 48 80 C47.40254147 77.55560344 46.77507522 75.11843263 46.125 72.6875 C45.87097412 71.71538574 45.87097412 71.71538574 45.61181641 70.72363281 C43.96180471 64.53415955 41.68709779 58.803228 39 53 C38.50886719 51.91332031 38.01773438 50.82664062 37.51171875 49.70703125 C28.99626709 31.72093407 16.87367421 16.1790884 1.546875 3.48828125 C1.03640625 2.99714844 0.5259375 2.50601562 0 2 C0 1.34 0 0.68 0 0 Z " fill="#060A46" transform="translate(547,269)"/>
<path d="M0 0 C17.49 0 34.98 0 53 0 C55 8 55 8 55 25 C36.19 25 17.38 25 -2 25 C-2 4 -2 4 0 0 Z " fill="#070B45" transform="translate(465,333)"/>
<path d="M0 0 C4.2656631 1.45599202 7.60426939 3.68873395 11.125 6.4375 C11.9754187 7.10120605 11.9754187 7.10120605 12.84301758 7.77832031 C31.55171136 22.66160263 51.5618778 48.30451948 54.8125 72.8125 C54.874375 73.864375 54.93625 74.91625 55 76 C45.44288689 74.3997392 36.78622898 64.38841556 30 58 C29.39671875 57.46117187 28.7934375 56.92234375 28.171875 56.3671875 C13.5055785 42.72890243 0.87337578 20.13131163 0 0 Z " fill="#060A46" transform="translate(528,273)"/>
<path d="M0 0 C-1.37730337 26.16876404 -19.08684909 48.256879 -37.5625 65.375 C-49.90558511 76 -49.90558511 76 -55 76 C-53.86195419 69.21265565 -52.15524136 63.07017452 -49.4375 56.75 C-49.08671387 55.92935059 -48.73592773 55.10870117 -48.37451172 54.26318359 C-45.0028743 46.61852094 -40.88319956 39.76197284 -36 33 C-35.60022949 32.44086914 -35.20045898 31.88173828 -34.78857422 31.30566406 C-12.19288145 0 -12.19288145 0 0 0 Z " fill="#060A46" transform="translate(455,273)"/>
<path d="M0 0 C18.15 0 36.3 0 55 0 C53.87429097 7.87996321 53.87429097 7.87996321 52.625 11.1484375 C52.36203125 11.84324219 52.0990625 12.53804688 51.828125 13.25390625 C51.55484375 13.95386719 51.2815625 14.65382813 51 15.375 C50.72671875 16.09816406 50.4534375 16.82132812 50.171875 17.56640625 C48.14941109 22.85058891 48.14941109 22.85058891 47 24 C44.1156618 24.08865208 41.25537842 24.11521296 38.37109375 24.09765625 C37.07474754 24.09553383 37.07474754 24.09553383 35.75221252 24.09336853 C32.98060708 24.08775239 30.2090812 24.07519719 27.4375 24.0625 C25.5631522 24.05748708 23.68880315 24.05292381 21.81445312 24.04882812 C17.20960456 24.03777772 12.60481579 24.0205023 8 24 C6.83682549 21.69491004 5.6948863 19.3826731 4.5625 17.0625 C4.23701172 16.42248047 3.91152344 15.78246094 3.57617188 15.12304688 C0.94524123 9.67132461 0.72101465 6.48913181 0 0 Z " fill="#030846" transform="translate(464,370)"/>
<path d="M0 0 C3.65829164 3.54743432 7.02911477 7.26915157 10.3515625 11.1328125 C11.95800349 13.00899507 11.95800349 13.00899507 13.7109375 14.6171875 C15 16 15 16 15 18 C5.43 18 -4.14 18 -14 18 C-12.27688766 14.55377533 -11.35853442 13.16901535 -8.6875 10.6875 C-5.27305492 7.38734596 -2.64983738 3.93460702 0 0 Z " fill="#0F1244" transform="translate(491,303)"/>
<path d="M0 0 C0.66 0.33 1.32 0.66 2 1 C-0.25711423 3.43739492 -2.62473216 5.11998465 -5.4375 6.875 C-9.0035518 9.19816078 -11.58566987 11.43099025 -14 15 C-15.6875 14.875 -15.6875 14.875 -18 14 C-19.12346696 12.54610159 -20.24624371 11.09165648 -21.36328125 9.6328125 C-24.5780408 6.42572541 -28.88789285 4.80453634 -33 3 C-32.34 2.34 -31.68 1.68 -31 1 C-30.48953125 1.28875 -29.9790625 1.5775 -29.453125 1.875 C-23.01174322 5.16421623 -17.17819142 6.13584871 -10 5 C-7.1479556 3.86223664 -4.59530933 2.56904392 -1.9609375 0.99609375 C-1.31382812 0.66738281 -0.66671875 0.33867187 0 0 Z " fill="#131643" transform="translate(507,253)"/>
<path d="M0 0 C5.61 0 11.22 0 17 0 C15.02212072 3.95575857 13.37028802 6.19142665 10 9 C6.69478417 8.69713162 5.01504224 7.40189968 2.75 5.0625 C2.22921875 4.53785156 1.7084375 4.01320313 1.171875 3.47265625 C0 2 0 2 0 0 Z " fill="#060B45" transform="translate(483,407)"/>
<path d="M0 0 C0 0.66 0 1.32 0 2 C-0.556875 2.14695313 -1.11375 2.29390625 -1.6875 2.4453125 C-11.72663751 5.39600494 -18.82022699 11.63269671 -25 20 C-26.57796433 22.92543948 -27.8765017 25.87342251 -29 29 C-30.32 28.34 -31.64 27.68 -33 27 C-32.01 27 -31.02 27 -30 27 C-29.79375 26.195625 -29.5875 25.39125 -29.375 24.5625 C-25.1977511 13.73962784 -17.14286511 5.41812939 -7.17578125 -0.28515625 C-4.45053299 -1.18052507 -2.72729287 -0.75943882 0 0 Z " fill="#D6C11A" transform="translate(531,174)"/>
<path d="M0 0 C8.95090046 1.02630063 15.75748311 6.87940959 21.39453125 13.66796875 C24.48091535 18.15111061 26.7508182 23.05674331 29 28 C28.34 28 27.68 28 27 28 C25.89572571 26.18242421 24.86742136 24.31848467 23.875 22.4375 C18.05962643 12.24560818 10.08603337 6.69534446 -1 3 C-0.67 2.01 -0.34 1.02 0 0 Z " fill="#CEBA1B" transform="translate(453,173)"/>
<path d="M0 0 C2.375 0.3125 2.375 0.3125 5 1 C7.67927341 5.01891012 7.15601248 7.24161923 7 12 C6.01 12.495 6.01 12.495 5 13 C4.80664062 12.39671875 4.61328125 11.7934375 4.4140625 11.171875 C4.15367187 10.37265625 3.89328125 9.5734375 3.625 8.75 C3.36976563 7.96109375 3.11453125 7.1721875 2.8515625 6.359375 C2.04826333 4.13372042 1.10288338 2.09068328 0 0 Z " fill="#151742" transform="translate(513,211)"/>
<path d="M0 0 C-0.268125 0.66 -0.53625 1.32 -0.8125 2 C-2.25705047 5.64939067 -3.62871178 9.32245433 -5 13 C-7 11 -7 11 -7.375 8.1875 C-6.81654512 3.44063354 -5.07044627 0 0 0 Z " fill="#101344" transform="translate(469,211)"/>
<path d="M0 0 C0.99 0.33 1.98 0.66 3 1 C2.61328125 1.40089844 2.2265625 1.80179688 1.828125 2.21484375 C-2.32668119 6.75016436 -4.79404423 11.27749121 -7 17 C-8.32 16.34 -9.64 15.68 -11 15 C-10.01 15 -9.02 15 -8 15 C-7.79375 14.195625 -7.5875 13.39125 -7.375 12.5625 C-5.57139638 7.889527 -2.87884691 4.07383996 0 0 Z " fill="#BCAA1F" transform="translate(509,186)"/>
<path d="M0 0 C0.66 0.33 1.32 0.66 2 1 C-0.18517099 3.40575607 -2.25919671 4.79535581 -5.1875 6.1875 C-5.90292969 6.53167969 -6.61835938 6.87585938 -7.35546875 7.23046875 C-7.89816406 7.48441406 -8.44085938 7.73835938 -9 8 C-9.33 7.01 -9.66 6.02 -10 5 C-8.38007835 4.13624104 -6.75388139 3.28424146 -5.125 2.4375 C-4.22007812 1.96183594 -3.31515625 1.48617187 -2.3828125 0.99609375 C-1.20332031 0.50302734 -1.20332031 0.50302734 0 0 Z " fill="#202140" transform="translate(507,253)"/>
</svg>
